<svg width="116" height="114" viewBox="0 0 116 114" fill="none" xmlns="http://www.w3.org/2000/svg">
<g clip-path="url(#clip0_802_453)">
<path d="M93.8348 73.3824C92.8798 71.2303 90.6659 69.8951 88.3304 70.2553C87.3494 70.4046 86.5419 70.7911 85.9168 71.3533C85.3091 71.4235 84.7014 71.4938 84.1023 71.5641C82.3746 71.7837 80.6469 72.0121 78.9192 72.2844C75.9326 72.7499 72.9633 73.3297 70.0288 74.0676C64.0469 75.5784 58.1779 77.792 52.8124 80.9016C48.2457 83.5456 43.8353 86.8923 40.3451 90.8979C38.7042 92.7777 37.1501 94.7804 35.9086 96.9589C34.7105 93.7264 32.8352 90.8452 29.8312 88.7019C25.7333 85.7855 21.5313 83.0537 17.5115 80.0407C16.7996 79.0481 15.6622 78.3366 14.5943 77.7832C12.4933 76.694 9.92344 77.0454 8.45619 79.0218C7.70954 80.0407 7.31885 81.5165 7.50117 82.8692C7.41435 82.8516 7.31885 82.8253 7.23203 82.8165C4.39302 82.3949 2.40484 84.3537 2.84763 87.2525C3.36854 90.6519 6.94552 93.0412 9.4633 94.9561C11.6859 96.6515 14.0561 98.1184 16.4262 99.5854C21.3403 102.616 25.7507 105.295 29.5795 109.485C31.6979 111.804 35.8652 110.943 37.2977 108.369C37.5582 108.167 37.7926 107.913 38.0097 107.588C39.1991 105.761 40.7011 104.039 42.0381 102.317C43.4359 100.525 44.9379 98.7772 46.5441 97.1785C49.7564 93.9987 53.0642 91.5303 57.0493 89.3519C66.0959 84.424 76.6271 82.3773 86.6635 81.4374C88.6169 81.2529 90.5096 81.1739 92.1158 79.9002C94.0779 78.3454 94.868 75.7277 93.8261 73.3912L93.8348 73.3824Z" fill="#E0DFE6"/>
<path d="M106.693 47.3902C102.734 49.5335 99.426 52.6343 95.6927 55.1465C93.8695 56.3763 91.9942 57.5534 90.0321 58.5547C87.9831 59.6001 85.3091 59.969 83.7637 61.7522C82.1315 63.6407 82.3051 66.5307 84.5451 67.8834C87.4014 69.6139 90.718 68.2875 93.4615 66.9787C95.7188 65.907 97.8111 64.4049 99.8254 62.9292C104.088 59.8021 108.429 56.4641 110.93 51.668C112.388 48.8747 109.462 45.8793 106.693 47.3814V47.3902Z" fill="#E0DFE6"/>
<path d="M93.7047 43.8239C91.1782 46.3361 87.61 47.2585 85.0835 49.7268C82.9738 51.791 84.7449 54.8479 87.2887 55.1114C92.0812 55.6121 95.9967 51.0356 97.9762 47.1618C99.374 44.4388 95.9707 41.5664 93.7047 43.8239Z" fill="#E0DFE6"/>
<path d="M87.3495 40.0995C87.3061 38.7643 86.4553 37.5433 85.153 37.1832C83.9896 36.8581 82.2966 37.3676 81.7844 38.571C80.7512 41.0042 78.7717 42.1725 77.0701 44.4213C76.1758 45.5983 76.5318 47.6099 77.3653 48.664C78.2855 49.8323 79.8657 50.4911 81.3416 50.0343C85.4569 48.7694 87.5058 44.1929 87.3582 40.0995H87.3495Z" fill="#E0DFE6"/>
<path d="M80.2737 58.8973C79.6052 58.3351 79.1798 58.0365 78.3463 57.7642C76.9138 57.2898 75.1253 57.7993 74.1008 58.8973C73.8577 59.1609 73.6146 59.4683 73.3455 59.723C73.3281 59.7142 72.92 59.9866 72.7725 60.048C72.6943 60.0832 71.5483 60.4345 70.8798 60.5839C70.3502 60.6981 69.508 60.742 68.5183 60.821C67.1378 60.9352 65.8182 60.9616 64.4291 60.821C62.8055 60.6541 61.347 62.2265 61.1733 63.7286C60.9736 65.4415 61.946 66.8645 63.5522 67.4091C66.5996 68.4544 69.7251 69.2977 72.9635 68.9551C76.0108 68.6301 79.5184 67.2071 80.9422 64.2468C81.7323 62.6042 81.8017 60.1974 80.2563 58.8973H80.2737Z" fill="#E0DFE6"/>
<path d="M64.5418 50.8336C64.0382 48.3916 61.7635 47.3375 59.6451 47.6186C59.732 40.4947 58.421 33.3181 56.4241 26.5456C55.3996 23.0759 49.4872 23.5326 49.904 27.4416C50.7461 35.3472 50.5291 43.2441 50.286 51.1674C50.2773 51.5627 50.3207 51.9404 50.4162 52.3093C48.619 52.2215 46.8739 52.0985 45.0855 52.9242C43.132 53.829 42.8629 56.4993 43.7137 58.2122C45.8495 62.4901 52.743 62.8239 56.754 61.8664C61.668 60.6981 65.627 56.0689 64.5331 50.8336H64.5418Z" fill="#E0DFE6"/>
<path d="M79.9437 11.1118C80.1608 9.67123 79.8048 8.25699 78.4765 7.47521C77.3391 6.79883 75.4986 6.88667 74.613 7.9759C72.2515 10.8922 70.8971 14.0194 70.9492 17.858C70.9839 20.3176 72.9982 22.417 75.4552 22.417C77.7472 22.417 80.1521 20.3263 79.9611 17.858C79.7961 15.6883 79.6225 13.2727 79.9437 11.1118Z" fill="#E0DFE6"/>
<path d="M35.023 44.4826C34.8233 42.4359 33.7034 40.3629 31.5502 39.8622C29.3971 39.3703 27.5826 40.2311 26.2976 41.944C26.1848 41.8913 26.1327 41.8737 26.2716 41.9792C24.978 40.969 23.3979 40.521 21.8872 41.417C20.4807 42.2515 19.8296 43.9819 20.2202 45.5631C21.1492 49.3402 24.4744 52.8626 28.5897 52.3005C32.2101 51.8086 35.405 48.3476 35.0317 44.4826H35.023Z" fill="#E0DFE6"/>
<path d="M34.8755 51.4133C9.97561 62.4901 8.26526 73.6898 0.911621 87.6214C7.29288 91.785 23.8494 102.8 32.5748 113.078C33.0176 111.918 33.5298 110.785 33.9118 109.59C39.5985 91.908 49.8433 77.019 85.7954 77.019C86.924 77.019 87.9138 77.0629 88.7994 77.1332C90.7007 77.2825 92.3156 75.6047 91.9856 73.6986C90.9438 67.6024 81.6454 64.1766 67.1552 66.6801C64.2467 61.0758 50.4423 64.4929 44.938 68.2173" stroke="#525D7D" stroke-width="2.1" stroke-linecap="round" stroke-linejoin="round"/>
<path d="M6.50269 76.3074C9.33301 77.5986 14.6724 79.6014 39.2251 97.2838" stroke="#525D7D" stroke-width="2.1" stroke-linecap="round" stroke-linejoin="round"/>
<path d="M42.099 54.8127C43.7399 55.7526 45.7975 56.1742 47.8117 56.1742C55.1567 56.1742 58.0912 52.6167 58.8812 46.503C54.6618 24.9644 53.9585 14.6079 45.3026 14.6079C39.8677 14.6079 33.2173 17.7263 33.2173 23.8751C33.2173 26.9056 37.3065 38.8081 38.2094 41.7683C39.5378 46.1077 40.7533 50.4822 42.099 54.8215V54.8127Z" stroke="#525D7D" stroke-width="2.1" stroke-linecap="round" stroke-linejoin="round"/>
<path d="M33.2866 24.701C34.8841 26.9936 37.9923 27.9423 41.1091 27.9423C48.1762 27.9423 51.8921 22.2414 51.8921 18.4906C51.8921 18.4379 51.8921 18.3764 51.8921 18.3237" stroke="#525D7D" stroke-width="2.1" stroke-linecap="round" stroke-linejoin="round"/>
<path d="M75.2814 0.922363C77.3043 2.74067 79.0841 4.91034 81.1765 6.71108C80.699 8.88954 79.9437 11.5248 79.2838 18.3237C76.5316 19.4305 74.448 20.2737 72.8592 20.9238C71.7565 19.9575 69.586 18.271 64.1511 14.9945C64.863 11.6653 65.8528 6.44756 66.2261 3.55759C72.6595 2.09943 73.7447 1.66901 75.2814 0.931147V0.922363Z" stroke="#525D7D" stroke-width="2.1" stroke-linecap="round" stroke-linejoin="round"/>
<path d="M66.365 3.52246C66.4692 3.61909 66.5734 3.71571 66.6775 3.81234C68.7873 5.66578 71.0967 7.28205 73.2238 9.1355C73.3453 9.24091 73.4755 9.3551 73.5971 9.46929L81.0896 7.12394" stroke="#525D7D" stroke-width="2.1" stroke-linecap="round" stroke-linejoin="round"/>
<path d="M25.959 37.6575C24.049 37.7629 22.4602 39.7569 22.4602 41.6015C22.4602 43.4462 24.1271 44.5354 25.7594 44.5354C27.6607 44.5354 29.4058 42.9543 29.4058 41.0745C29.4058 39.4494 27.9993 37.6487 26.1153 37.6487C26.0632 37.6487 26.0025 37.6487 25.9504 37.6487L25.959 37.6575Z" stroke="#525D7D" stroke-width="2.1" stroke-linecap="round" stroke-linejoin="round"/>
<path d="M58.6902 45.4929C71.0447 37.3413 70.7495 32.9844 74.1268 32.9844C75.1512 32.9844 76.0368 33.5905 76.0368 34.8378C76.0368 38.3427 72.9547 42.3307 70.7495 46.8193" stroke="#525D7D" stroke-width="2.1" stroke-linecap="round" stroke-linejoin="round"/>
<path d="M65.5576 45.3875C74.7779 46.8456 81.8624 53.1614 81.8624 64.3699C81.8624 65.0287 81.8363 65.6699 81.7842 66.3024" stroke="#525D7D" stroke-width="2.1" stroke-linecap="round" stroke-linejoin="round"/>
<path d="M72.3296 47.5572C75.0471 44.755 77.0786 42.3131 78.6761 40.2312C81.5238 36.5068 82.3226 27.3362 87.7054 27.3362C89.0164 27.3362 89.5981 28.4957 89.5981 29.8133C89.5981 32.185 88.07 33.5992 88.07 39.0893C88.07 39.4231 88.07 39.7569 88.0874 40.0819C87.306 43.3145 85.9603 46.0024 84.6233 48.216" stroke="#525D7D" stroke-width="2.1" stroke-linecap="round" stroke-linejoin="round"/>
<path d="M78.2595 52.5289C78.8412 52.116 79.4316 51.712 80.0306 51.3343C99.1484 39.2825 95.6148 31.0957 100.72 31.0957C101.909 31.0957 102.291 32.1586 102.291 33.3444C102.291 36.9196 99.1657 44.4739 96.7261 49.6565" stroke="#525D7D" stroke-width="2.1" stroke-linecap="round" stroke-linejoin="round"/>
<path d="M81.4197 59.7406C85.9604 55.902 89.1901 55.1641 92.2114 53.0998C93.4529 52.2478 105.121 42.2515 112.597 42.2515C112.605 42.2515 112.614 42.2515 112.623 42.2515C113.708 42.2515 115.08 42.9805 115.08 44.184C115.08 49.0855 95.224 59.8372 88.2264 68.5598" stroke="#525D7D" stroke-width="2.1" stroke-linecap="round" stroke-linejoin="round"/>
</g>
<defs>
<clipPath id="clip0_802_453">
<rect width="116" height="114" fill="white"/>
</clipPath>
</defs>
</svg>
