<svg width="108" height="92" viewBox="0 0 108 92" fill="none" xmlns="http://www.w3.org/2000/svg">
<g clip-path="url(#clip0_802_425)">
<path d="M107.977 56.3197C107.794 48.5752 107.051 40.8093 105.749 33.1609C104.47 25.6834 103.042 17.3086 99.2501 10.5468C98.8731 9.86316 97.8908 10.2584 97.8223 10.91C97.7766 11.3693 97.7538 11.818 97.7309 12.2773C97.5139 9.94862 97.2283 7.52378 96.2118 5.52622C94.8754 2.90911 92.4653 1.62725 89.427 1.42429C84.9267 1.13587 80.2551 1.4777 75.7548 1.72339C74.4641 1.79817 74.03 3.66754 75.4349 3.93459C78.4275 4.52211 81.4087 5.02417 84.4356 5.47281C87.8965 5.98556 90.5807 6.11374 91.0947 9.89521C91.9513 16.1549 92.1341 22.6069 92.6366 28.9094C93.0478 34.0154 93.4705 39.1215 93.8817 44.2275C92.0884 44.2703 90.2951 44.4412 88.5133 44.548C86.1717 44.6869 83.853 44.7189 81.58 45.3278C80.3122 45.6696 79.821 46.6096 79.9352 47.5283C79.2042 47.8167 78.656 48.4897 78.8159 49.2161C75.2979 45.5094 70.592 42.8068 65.3721 41.9522C56.6341 40.5102 44.6181 44.3878 39.5238 51.9507C34.8407 55.5399 33.8013 61.8744 34.8407 67.7923C34.4295 66.9911 33.6414 66.3502 32.4535 66.2434C24.1382 65.4956 16.8737 67.4505 8.94679 69.2878C8.21578 69.4587 8.26147 70.4308 8.94679 70.623C9.9291 70.9008 10.9571 71.0396 11.9851 71.1144C11.551 71.2426 11.117 71.3708 10.7058 71.5203C9.06102 72.1079 8.87826 74.2977 10.7058 74.8211C14.3152 75.8466 18.1873 76.2098 21.8766 77.0644C25.6574 77.9403 29.3581 79.1046 33.1388 79.9699C36.1314 80.6536 37.9932 78.8055 38.2217 76.7225C38.4958 77.1498 38.7814 77.5664 39.0783 77.951C43.8756 84.2321 52.0424 88.7613 60.3235 88.8574C59.8552 89.4343 59.878 90.3529 60.6433 90.7268C66.3886 93.4935 75.6063 91.3677 80.6663 88.0135C83.8759 85.8878 86.6743 82.9929 88.7189 79.7135C93.5047 80.3224 98.382 78.2394 101.866 74.9173C106.949 70.0676 108.136 62.8465 107.988 56.3304L107.977 56.3197ZM35.3661 72.3963C34.5095 72.0651 33.5957 71.766 32.6477 71.499C34.2468 71.499 35.0692 70.4521 35.1491 69.2771C35.4347 70.4949 35.8002 71.7019 36.2571 72.8342C35.9944 72.674 35.6974 72.5245 35.3661 72.3963ZM75.869 70.7085C73.6188 75.0241 69.4726 79.6708 64.3897 81.0808C59.2841 82.4909 53.5616 80.6535 49.541 77.6305C45.7489 74.7784 43.1332 70.6765 42.3336 66.1793C41.991 64.2672 42.0138 62.4192 42.1737 60.5925C42.3793 60.4644 42.5849 60.3041 42.7791 60.1118C45.8402 57.0354 48.1132 53.7987 52.1452 51.673C56.0173 49.622 60.5405 48.714 64.9266 49.6647C74.9895 51.8332 80.3693 62.0667 75.8576 70.7192L75.869 70.7085ZM85.2009 68.3798C84.9724 68.5187 84.7554 68.6682 84.5612 68.8498C84.9952 67.0445 85.2123 65.2179 85.1552 63.4233C85.3493 65.0363 85.3722 66.6813 85.2009 68.3798ZM85.9776 50.6154C86.8571 50.7543 87.7366 50.8825 88.6161 51.032C90.6264 51.3632 92.6481 51.7477 94.6812 51.9507C95.1952 56.3411 95.5036 61.7676 93.0364 64.3526C92.3168 59.1932 89.8839 54.1833 85.9776 50.6154ZM92.9222 71.3494C92.9565 71.1678 92.9793 70.9756 93.0022 70.794C94.3614 70.2812 95.4922 69.6403 96.4288 68.8712C95.5264 70.0035 94.3842 70.8687 92.9222 71.3494Z" fill="#E0DFE6"/>
<path d="M36.0812 44.6939C30.5194 44.9677 24.9692 45.4522 19.3958 45.6523C14.6932 45.8209 9.29394 45.1257 4.73069 46.2527C2.95416 46.6846 2.3736 48.4435 3.12833 49.8338C3.7089 50.9187 4.9397 51.6244 6.46078 52.0983C6.35628 52.4143 6.36789 52.7514 6.50722 53.0568C6.82073 53.7414 7.54063 53.9732 8.31859 53.8573C8.72498 53.8046 9.13138 53.7414 9.52616 53.6888C10.0487 53.615 10.4202 53.278 10.6176 52.8567C12.9979 53.0989 15.3899 53.1095 16.8877 53.2253C23.2159 53.7309 29.7414 53.9521 36.0812 53.3728C42.0959 52.8356 42.3165 44.3884 36.0812 44.6939Z" fill="#E0DFE6"/>
<path d="M33.5071 31.1266C32.1566 27.5396 31.3509 23.9009 31.1353 20.1066C31.0105 17.7948 27.5152 17.8674 27.2655 20.1066C26.8797 23.5484 26.9818 26.9384 27.4811 30.3283C22.5446 30.66 17.3584 31.2095 12.6602 32.3498C11.5141 32.6297 11.0942 33.6353 11.253 34.6098C11.2644 34.6824 11.2757 34.7549 11.2871 34.8275C11.3892 35.4702 12.1723 36.1441 12.8645 36.2685C18.0734 37.2015 24.349 36.7039 29.6146 36.2996C31.4304 36.1545 32.4744 34.9726 32.7468 33.6768C33.4957 33.0962 33.9156 32.2047 33.4957 31.1162L33.5071 31.1266Z" fill="#E0DFE6"/>
<path d="M20.3909 70.9394C17.4748 70.9394 14.3291 70.9394 9.96654 70.9181C6.09759 70.8967 2.94044 68.069 2.77971 64.4729C2.56158 59.5857 2.34345 54.6985 2.1368 49.8113C1.52833 35.8752 0.908382 21.4696 0.0128995 7.29882C-0.101906 5.53814 0.552485 3.86283 1.86127 2.58233C3.15857 1.30184 4.92658 0.597564 6.82087 0.597564C18.0259 0.597564 27.5088 0.448173 36.6818 0.298782C45.8662 0.149391 55.3492 0 66.5657 0C76.2782 0 84.9001 0.117379 92.9365 0.352136C98.4012 0.512198 98.4127 6.74394 98.4242 8.79273C98.4472 16.0275 99.136 27.7867 99.8019 39.1511C100.33 48.0826 100.824 56.5232 100.984 62.5628C101.042 64.7397 100.169 66.7991 98.539 68.3571C96.8973 69.915 94.693 70.8007 92.3625 70.758C89.6071 70.758 86.8518 70.7473 84.0965 70.7473C83.4191 70.7473 82.8795 70.2351 82.8795 69.6162C82.8795 68.9867 83.4306 68.4851 84.0965 68.4851C86.8518 68.4851 89.6071 68.4851 92.3625 68.4958C94.0501 68.4958 95.6115 67.8876 96.7825 66.7778C97.9535 65.6574 98.5849 64.1848 98.539 62.6269C98.3783 56.6299 97.8731 48.2 97.3565 39.2899C96.6906 27.8934 95.9903 16.1129 95.9673 8.81407C95.9559 4.53509 95.0259 2.68904 92.8446 2.62501C84.8427 2.39026 76.2438 2.28355 66.5542 2.28355C55.3606 2.28355 45.8777 2.43294 36.7047 2.58233C27.5203 2.73172 18.0259 2.88111 6.79791 2.88111C5.58097 2.88111 4.45587 3.32929 3.61779 4.16161C2.77971 4.98326 2.36641 6.06101 2.4353 7.19211C3.33078 21.3736 3.95073 35.8005 4.5592 49.7366C4.76585 54.6238 4.98398 59.511 5.20211 64.3982C5.30543 66.7778 7.40638 68.6559 9.96654 68.6665C19.8513 68.7092 23.4906 68.6985 32.2962 68.6665H34.6956C35.35 68.6772 35.9126 69.1574 35.9241 69.787C35.9241 70.4165 35.3845 70.9181 34.7071 70.9287H32.3077C27.3825 70.9608 24.0647 70.9714 20.3794 70.9714L20.3909 70.9394Z" fill="#525D7D"/>
<path d="M59.0989 89.3605C47.8939 89.3605 32.2598 79.7736 32.2598 64.1732C32.2598 51.7576 43.4878 40.7024 57.2813 39.5256C58.0751 39.4609 58.8688 39.4285 59.6626 39.4285C72.2137 39.4285 85.5585 48.0438 85.5585 64.0004C85.5585 78.4672 74.1809 89.3713 59.0989 89.3713V89.3605ZM59.6626 41.7064C58.9379 41.7064 58.2131 41.7388 57.4999 41.8036C44.9258 42.8724 34.6986 52.9128 34.6986 64.1732C34.6986 79.2122 50.5859 87.0718 59.0989 87.0718C72.7889 87.0718 83.1196 77.1501 83.1196 63.9896C83.1196 53.1935 74.8941 41.7064 59.6626 41.7064Z" fill="#525D7D"/>
<path d="M57.7635 74.9144C56.1038 74.9144 52.9363 73.2997 52.3518 72.765C51.8726 72.3352 51.8726 71.6222 52.3518 71.1923C52.8311 70.7625 53.6259 70.7625 54.1051 71.1923C54.5843 71.5698 57.0155 72.6812 57.7635 72.6812C62.3103 72.6812 64.8233 69.8083 64.8233 67.8267C64.8233 66.1597 63.5025 65.0064 61.6207 65.0064C61.0947 65.0064 60.557 65.1007 59.9843 65.1951C59.3181 65.3104 58.6285 65.4258 57.857 65.4258C54.1869 65.4258 50.4934 63.8426 50.4934 60.2987C50.4934 56.7549 54.0467 52.5715 59.7856 52.5715C61.1415 52.5715 62.5207 52.8022 63.7596 53.253C64.3908 53.4837 64.7064 54.1337 64.4493 54.6999C64.1921 55.2661 63.4674 55.5492 62.8363 55.3185C61.8895 54.983 60.8376 54.7943 59.7856 54.7943C55.1454 54.7943 52.983 58.076 52.983 60.2883C52.983 63.0562 57.0506 63.1925 57.8687 63.1925C58.4181 63.1925 58.9557 63.0982 59.5402 63.0038C60.1947 62.8885 60.8726 62.7731 61.6441 62.7731C64.9402 62.7731 67.3246 64.9015 67.3246 67.8267C67.3246 71.2447 63.4908 74.9144 57.7869 74.9144H57.7635Z" fill="#525D7D"/>
<path d="M59.0485 56.5144C58.3821 56.5144 57.8227 56.0015 57.787 55.3372C57.7632 54.7544 57.7394 54.1833 57.7156 53.6005C57.6799 52.4116 57.6323 51.1761 57.5132 49.9872C57.4418 49.3112 57.9536 48.7051 58.6439 48.6352C59.3342 48.5652 59.9531 49.0664 60.0245 49.7425C60.1554 51.0129 60.203 52.2834 60.2387 53.5189C60.2625 54.09 60.2744 54.6495 60.3101 55.2206C60.3458 55.9083 59.8102 56.4794 59.108 56.5144C59.0842 56.5144 59.0723 56.5144 59.0485 56.5144Z" fill="#525D7D"/>
<path d="M60.5668 80.1715C59.9341 80.1715 59.43 79.6852 59.43 79.0975C59.43 77.76 59.1833 76.2807 58.926 74.8622C58.8187 74.2745 59.237 73.7173 59.859 73.6159C60.481 73.5146 61.0709 73.9098 61.1781 74.4975C61.457 75.997 61.7144 77.5878 61.7144 79.0975C61.7144 79.6953 61.1996 80.1715 60.5776 80.1715H60.5668Z" fill="#525D7D"/>
<path d="M82.7914 44.6857H82.5825C81.921 44.6857 81.3872 44.2541 81.3523 43.6951C81.3175 43.1458 81.8049 42.6652 82.4548 42.6064C87.9442 42.1356 93.5728 42.0669 98.3542 42.0571C99.0389 42.0571 99.5844 42.5181 99.5844 43.0968C99.5844 43.6755 99.0389 44.1364 98.3542 44.1364C93.7585 44.1364 88.3736 44.2051 83.128 44.6367C83.0235 44.6661 82.9075 44.6759 82.7798 44.6759L82.7914 44.6857Z" fill="#525D7D"/>
<path d="M88.3864 53.8857H88.1802C87.5502 53.8857 87.0233 53.4675 86.966 52.9199C86.9087 52.3722 87.344 51.8844 87.9626 51.7848C91.0096 51.3168 94.0222 51.2571 96.8172 51.2571C97.6076 51.2571 98.3979 51.2571 99.1883 51.267H99.784C100.46 51.267 100.998 51.7549 100.987 52.3324C100.987 52.9199 100.391 53.3878 99.7611 53.3779H99.1654C98.375 53.3779 97.5961 53.3679 96.8057 53.3679C94.2627 53.3679 91.5594 53.4177 88.8446 53.796C88.6957 53.8558 88.5353 53.8857 88.3635 53.8857H88.3864Z" fill="#525D7D"/>
<path d="M2.61701 45.9999C1.97627 45.9999 1.4385 45.541 1.40418 44.9464C1.36985 44.331 1.89618 43.8199 2.55981 43.7886C8.88716 43.5278 15.0658 43.4965 20.7981 43.4965C22.503 43.4965 23.5671 43.4965 24.6312 43.4965C25.6953 43.4965 26.7594 43.4965 28.4642 43.4965C31.7366 43.4965 32.2057 43.4861 34.1394 43.4339L36.6223 43.3713C37.3088 43.3713 37.8465 43.8512 37.8694 44.4457C37.8923 45.0611 37.3545 45.5618 36.6909 45.5827L34.2195 45.6453C32.2972 45.6974 31.7823 45.7078 28.4756 45.7078C26.7708 45.7078 25.7067 45.7078 24.6426 45.7078C23.5785 45.7078 22.5144 45.7078 20.821 45.7078C15.1115 45.7078 8.96725 45.7391 2.68567 45.9999C2.66278 45.9999 2.65134 45.9999 2.62846 45.9999H2.61701Z" fill="#525D7D"/>
<path d="M19.1033 55.2001C14.1945 55.2001 9.10234 55.126 3.9872 54.9883C3.31053 54.9671 2.78296 54.4483 2.8059 53.8341C2.82883 53.2094 3.40228 52.7117 4.05601 52.7435C9.14822 52.8811 14.206 52.9553 19.0918 52.9553C23.3582 52.9553 24.3102 52.9023 26.3975 52.7964C27.4526 52.7435 28.7945 52.6694 30.9851 52.5741C31.6503 52.5317 32.2237 53.0294 32.2581 53.6435C32.2925 54.2683 31.765 54.7871 31.0998 54.8189C28.9321 54.9036 27.6017 54.9777 26.5581 55.0307C24.4822 55.1472 23.45 55.2001 19.1147 55.2001H19.1033Z" fill="#525D7D"/>
<path d="M10.6479 32.857C9.99825 32.857 9.46674 32.417 9.39587 31.8266C8.82892 26.6102 8.49821 21.2864 8.41553 15.9948C8.41553 15.383 8.92341 14.8786 9.59666 14.8356C12.018 14.6961 14.4747 14.6854 16.589 14.6854H18.8686C21.4789 14.6854 24.2545 14.6639 27.0184 14.46C27.3609 14.4385 27.7034 14.5351 27.9633 14.7498C28.2231 14.9644 28.3649 15.2542 28.3767 15.5762C28.4712 19.3759 28.7901 23.2936 29.109 27.0825C29.2271 28.4993 29.3452 29.9053 29.4515 31.3114C29.4751 31.6227 29.357 31.9232 29.1326 32.1486C28.9082 32.374 28.5893 32.5136 28.2468 32.5243C22.849 32.7175 17.0969 32.8248 10.6361 32.8463L10.6479 32.857ZM10.9432 17.0574C11.0495 21.5762 11.3329 26.1164 11.7818 30.5708C17.2386 30.5386 22.1875 30.4527 26.853 30.2917C26.7703 29.2828 26.6877 28.2739 26.605 27.2542C26.3215 23.8302 26.0262 20.2989 25.9081 16.8213C23.4986 16.9608 21.1245 16.9716 18.8686 16.9716H16.589C14.8645 16.9716 12.9038 16.9716 10.9432 17.0574Z" fill="#525D7D"/>
<path d="M11.0471 26.2856C10.3987 26.2856 9.85449 25.7534 9.81976 25.0639C9.78502 24.3502 10.3061 23.7575 10.9776 23.7212C16.1301 23.443 22.1279 23.0801 28.0794 22.3544C28.7509 22.2576 29.3646 22.7777 29.4456 23.4793C29.5267 24.1809 29.0404 24.822 28.3688 24.9067C22.3363 25.6445 16.3038 26.0074 11.105 26.2856C11.0818 26.2856 11.0587 26.2856 11.0355 26.2856H11.0471Z" fill="#525D7D"/>
<path d="M17.6572 34.1715C17.4244 34.1715 17.1805 34.106 16.9698 33.9532C16.4376 33.582 16.3156 32.8615 16.6926 32.3375C18.0231 30.5035 18.6773 28.2547 18.6773 25.4929C18.6773 22.731 17.0696 19.849 14.4751 17.8404C13.9651 17.4474 13.8764 16.716 14.2756 16.2138C14.6747 15.7117 15.4176 15.6243 15.9276 16.0173C19.0764 18.4517 21.0389 22.076 21.0389 25.4929C21.0389 28.9097 20.2517 31.4424 18.6218 33.6912C18.389 34.0077 18.0342 34.1715 17.6683 34.1715H17.6572Z" fill="#525D7D"/>
<path d="M37.8501 28.9143C36.2282 28.9143 32.2598 26.8904 32.2598 23.1349C32.2598 21.0548 34.4008 17.0857 37.7636 17.0857C38.1853 17.0857 38.6178 17.1532 39.0287 17.2881C39.6343 17.4792 39.9695 18.1539 39.7857 18.7835C39.6018 19.4132 38.9531 19.7617 38.3475 19.5706C38.1529 19.5031 37.9474 19.4806 37.7528 19.4806C35.9686 19.4806 34.5413 22.1117 34.5413 23.1349C34.5413 25.3499 37.2987 26.5306 37.8285 26.5306C39.1585 26.5306 39.71 26.1708 40.4128 25.721C40.8345 25.4511 41.3211 25.1363 41.9699 24.9114C42.5754 24.6978 43.2242 25.0351 43.4188 25.6648C43.6243 26.2944 43.2999 26.9691 42.6944 27.1715C42.3051 27.3064 41.9807 27.5088 41.6131 27.7449C40.8021 28.2621 39.8073 28.9143 37.8177 28.9143H37.8501Z" fill="#525D7D"/>
<path d="M45.2554 28.9143C44.7609 28.9143 44.3149 28.5122 44.2373 27.962C43.7429 24.4807 43.6168 20.8618 43.5005 17.3594L43.4811 16.9361C43.4617 16.3118 43.898 15.7933 44.47 15.7722C45.0421 15.751 45.5172 16.2272 45.5365 16.8515L45.5559 17.2747C45.6723 20.7137 45.7983 24.2585 46.2734 27.6234C46.3607 28.2371 45.9728 28.8085 45.4105 28.9038C45.362 28.9038 45.3038 28.9143 45.2554 28.9143Z" fill="#525D7D"/>
<path d="M50.7075 28.9038C50.356 28.9038 50.0158 28.7676 49.7776 28.4952C46.3754 24.6501 45.9218 23.9377 46.2847 23.0052C46.5796 22.2404 47.3734 22.1042 47.8043 22.0309C48.4281 21.9156 48.8477 21.8423 48.9157 20.4279C48.9157 20.1031 48.0992 19.3068 47.0786 19.3068C46.5455 19.3068 45.9445 19.5059 45.4115 19.8831C44.8785 20.2498 44.13 20.1555 43.7217 19.663C43.3248 19.1706 43.4269 18.4791 43.9599 18.102C44.9238 17.4314 46.0012 17.0857 47.0672 17.0857C49.2559 17.0857 51.3199 18.7096 51.3199 20.4279C51.3199 20.4383 51.3199 20.5117 51.3199 20.5222C51.1952 22.9424 49.9817 23.7386 49.0291 24.0424C49.7323 24.9644 51.0478 26.4417 51.6261 27.1017C52.0457 27.5732 51.9663 28.2752 51.456 28.6628C51.2292 28.8304 50.9684 28.9143 50.6962 28.9143L50.7075 28.9038Z" fill="#525D7D"/>
<path d="M55.0771 30.2286C54.6125 30.2286 54.1964 29.8727 54.0802 29.3551C53.606 27.1444 53.5576 24.8474 53.5092 22.6368C53.4802 21.2241 53.4511 19.7575 53.306 18.3664C53.2382 17.7409 53.6447 17.1694 54.206 17.0939C54.7674 17.0184 55.2803 17.4713 55.3481 18.0968C55.5029 19.5958 55.532 21.1163 55.561 22.5829C55.6094 24.772 55.6481 26.8424 56.0739 28.8159C56.2094 29.4306 55.8707 30.0452 55.319 30.1962C55.2416 30.2178 55.1545 30.2286 55.0771 30.2286Z" fill="#525D7D"/>
<path d="M54.5822 18.3887C54.011 18.3887 53.4883 18.0375 53.3425 17.4937C53.1602 16.8478 53.5613 16.1907 54.254 16.0207C54.9346 15.8508 55.6639 15.7715 56.5146 15.7715C57.1952 15.7715 57.8637 15.8281 58.5078 15.8735C59.6625 15.9641 60.7685 16.0094 61.5706 15.8621C62.2755 15.7375 62.944 16.1567 63.0898 16.8025C63.2357 17.4483 62.7738 18.0828 62.0811 18.2188C60.9872 18.4227 59.5774 18.3661 58.3012 18.2754C57.0008 18.1735 55.8097 18.1281 54.9225 18.3547C54.8131 18.3774 54.7037 18.4001 54.5822 18.4001V18.3887Z" fill="#525D7D"/>
<path d="M56.018 30.2287C55.2852 30.2287 54.7014 29.6976 54.7014 29.0558C54.7014 28.4141 55.2976 27.883 56.018 27.883C57.9431 27.883 59.7689 27.883 61.5823 27.6174C62.3027 27.5068 62.9858 27.9383 63.0976 28.58C63.2218 29.2218 62.7374 29.8193 62.017 29.9299C59.9801 30.2287 57.968 30.2287 56.018 30.2287Z" fill="#525D7D"/>
<path d="M54.3838 24.9713C53.7798 24.9713 53.2986 24.4106 53.2986 23.733C53.2986 23.0554 53.79 22.4946 54.3838 22.4946C54.9469 22.4946 55.4793 22.4596 56.0424 22.4246C56.6157 22.3895 57.1992 22.3428 57.8238 22.3428C58.4483 22.3428 58.909 22.9035 58.909 23.5811C58.909 24.2587 58.4176 24.8195 57.8238 24.8195C57.2607 24.8195 56.7283 24.8545 56.1652 24.8896C55.5919 24.9246 55.0083 24.9713 54.3838 24.9713Z" fill="#525D7D"/>
<path d="M67.3776 27.5895C66.9991 27.5895 66.632 27.5791 66.2764 27.5477C65.6913 27.4955 65.2325 27.0774 65.1751 26.5444C64.8654 23.5239 64.6475 20.8274 64.5213 18.3085C64.4869 17.7232 64.9686 17.2111 65.6225 17.1484C66.1273 17.1066 66.632 17.0857 67.1367 17.0857C73.0789 17.0857 75.7403 19.8763 75.7403 22.6564C75.7403 26.0531 71.4041 27.6 67.3776 27.6V27.5895ZM67.0106 19.3014C67.1253 21.1932 67.2859 23.1999 67.5038 25.3738C69.9587 25.3424 73.3084 24.4959 73.3084 22.6564C73.3084 20.9946 71.4041 19.3119 67.1367 19.3119C67.1023 19.3119 67.0564 19.3119 67.022 19.3119L67.0106 19.3014Z" fill="#525D7D"/>
<path d="M77.3765 27.6C76.7896 27.6 76.2897 27.1861 76.2354 26.6309C76.0941 25.2277 76.0397 23.7842 75.9854 22.381C75.9311 21.0081 75.8767 19.5948 75.7463 18.2623C75.6811 17.6768 76.1484 17.1519 76.7896 17.0913C77.42 17.0308 77.9851 17.4648 78.0503 18.0604C78.1916 19.4636 78.2459 20.9172 78.3003 22.3103C78.3546 23.6731 78.4089 25.0864 78.5394 26.429C78.6046 27.0145 78.1372 27.5394 77.496 27.6C77.4634 27.6 77.42 27.6 77.3874 27.6H77.3765Z" fill="#525D7D"/>
<path d="M85.8899 28.903C85.3419 28.903 84.8751 28.4397 84.8143 27.8183C84.7128 26.6206 84.6722 25.3891 84.6215 24.2027C84.5505 22.2932 84.4896 20.3273 84.175 18.5082C84.0634 17.8528 84.449 17.2314 85.0274 17.1071C85.6159 16.9828 86.174 17.4122 86.2856 18.0562C86.6306 20.0561 86.7016 22.1124 86.7726 24.1123C86.8132 25.3213 86.8538 26.4737 86.9553 27.6036C87.0162 28.2589 86.5798 28.8465 85.9812 28.9143C85.9507 28.9143 85.9101 28.9143 85.8797 28.9143L85.8899 28.903Z" fill="#525D7D"/>
<path d="M91.2847 18.4001C91.2847 18.4001 91.1634 18.4001 91.1027 18.3887C90.1318 18.2635 89.0638 18.1952 87.7289 18.1952C86.9158 18.1952 86.0905 18.218 85.2774 18.2407C83.8939 18.2749 82.5225 18.309 81.1754 18.2407C80.4594 18.2066 79.9133 17.6377 79.9497 16.9777C79.9861 16.3063 80.5808 15.8056 81.2968 15.8284C82.5832 15.8853 83.8939 15.8511 85.2046 15.817C86.042 15.7942 86.8915 15.7715 87.7289 15.7715C89.1852 15.7715 90.3745 15.8398 91.4668 15.9877C92.1707 16.0787 92.6561 16.6932 92.559 17.3532C92.4619 17.9563 91.9158 18.3887 91.2847 18.3887V18.4001Z" fill="#525D7D"/>
</g>
<defs>
<clipPath id="clip0_802_425">
<rect width="108" height="92" fill="white"/>
</clipPath>
</defs>
</svg>
