<svg width="126" height="103" viewBox="0 0 126 103" fill="none" xmlns="http://www.w3.org/2000/svg">
<g clip-path="url(#clip0_802_381)">
<path d="M117.358 38.2761C117.148 37.9379 116.775 37.7863 116.413 37.7747C116.122 36.6551 115.737 35.5588 115.247 34.5092C114.664 33.2614 112.74 33.9261 112.74 35.1856C112.705 43.874 109.51 50.4166 103.447 56.4343C102.805 57.0757 102.537 57.8338 102.549 58.5801C99.7387 59.3382 96.7419 59.5131 93.6051 59.5364C92.9172 59.5364 92.3108 59.7347 91.7861 60.0263C89.6055 59.1866 86.7953 60.5627 86.4921 63.5249C86.4221 64.1664 86.4921 65.041 86.5621 65.974C85.8041 66.079 85.0345 66.3939 84.2882 66.977C84.7896 66.5805 80.2536 64.8428 79.554 64.5979C77.4434 63.8398 75.2628 63.3034 73.0473 62.9535C68.7095 62.2654 64.3717 62.2771 60.034 62.9535C52.9559 64.0614 42.1348 67.6301 39.2895 74.9656C39.2079 75.1755 39.1963 75.4088 39.2079 75.6537C37.8436 74.3359 36.4443 73.0647 35.0101 71.8868C33.7624 70.8605 32.3164 70.8139 31.1387 71.3153C29.4479 69.2278 27.7221 67.1869 25.8448 65.2626C24.632 64.0148 22.9412 65.5892 23.5826 67.012C25.7864 71.9451 28.6666 76.75 31.6285 81.2632C32.9811 83.3275 34.2288 85.7649 35.873 87.7241C35.6631 87.9924 35.4648 88.2489 35.3016 88.5055C33.9606 90.4298 32.5963 92.3307 31.4419 94.3833C30.614 95.8644 32.4914 97.1822 33.7041 96.1326C35.7097 94.4066 37.5404 92.4707 39.3595 90.5347C39.4528 90.5814 39.5461 90.6164 39.6394 90.6514C37.7503 94.1967 36.7125 98.0686 37.3072 102.01C37.5055 103.317 39.2662 103.223 39.8726 102.349C41.9599 99.3514 43.3125 95.9227 45.1899 92.7972C47.2188 89.4152 49.8308 86.5929 52.8859 84.1088C53.9937 83.2108 53.8771 81.5898 53.364 80.4469C53.1075 79.8754 52.816 79.3506 52.5011 78.8492C56.8273 75.677 61.6315 72.8314 67.1587 73.6944C71.2632 74.3359 74.948 76.3768 78.7611 78.0211C82.2593 80.6918 86.9352 80.8901 90.4568 77.9395C93.3136 75.5487 94.7246 71.7468 94.8412 67.9683C109.837 68.9362 126.92 53.4138 117.381 38.2761H117.358ZM44.9683 83.3391C44.9683 83.3391 44.9683 83.2808 44.9683 83.2458C45.0383 81.5315 43.6507 80.272 42.5895 79.1291C42.1114 78.6159 41.6217 78.1144 41.1319 77.6013L42.0998 77.7412C42.7295 77.8345 43.5107 77.4847 43.7439 76.8899C43.9772 76.7966 44.2104 76.6916 44.4436 76.5867C44.3969 77.0765 44.7001 77.508 45.1316 77.7179C45.0033 78.6975 45.3415 79.7938 45.9945 80.4469C46.321 80.7734 46.5892 81.1 46.8457 81.4265C46.2044 82.033 45.5747 82.6627 44.9567 83.3275L44.9683 83.3391Z" fill="#E0DFE6"/>
<path d="M86.442 52.9714C82.535 52.9714 82.535 58.8572 86.442 58.8572C90.3489 58.8572 90.3489 52.9714 86.442 52.9714Z" fill="#E0DFE6"/>
<path d="M84.8051 23.5604C75.3999 22.3549 65.5186 21.5178 56.042 22.5112C54.0419 22.7233 53.399 25.3462 55.542 25.949C62.828 27.9915 70.495 29.2751 78.0548 30.4247C78.2334 30.8265 78.4596 31.2395 78.8048 31.6302C79.0906 31.9539 79.3644 32.2887 79.6501 32.6124C81.8407 35.1795 85.6742 33.3044 86.6861 30.8712C87.0314 30.0341 87.3766 29.197 87.7219 28.371C88.46 26.574 86.8885 23.8171 84.8051 23.5492V23.5604Z" fill="#E0DFE6"/>
<path d="M76.4297 33.2123C73.4682 33.4751 70.5666 33.9051 67.5691 33.8096C64.4757 33.7021 61.5262 32.9854 58.5047 32.436C55.5552 31.9104 53.2052 34.6815 54.644 37.4407C56.3705 40.7851 55.8789 45.2642 56.6103 48.9072C56.9341 50.5078 59.2241 50.2928 59.6678 48.9072C60.519 46.1959 60.4111 43.4487 60.4951 40.7134C65.9385 42.5409 72.1972 42.8514 77.5687 41.5615C82.1489 40.4626 81.2976 32.7704 76.4297 33.2123Z" fill="#E0DFE6"/>
<path d="M99.1965 11.4722C97.1379 10.4719 94.9263 9.84082 92.8794 8.85249C89.7032 7.3164 87.9739 4.85153 85.8682 2.06514C84.8683 0.743396 82.9743 1.82699 83.6566 3.37498C85.4565 7.44739 86.9622 11.0792 90.8325 13.5203C92.5971 14.6277 94.5381 15.3898 96.3615 16.39C98.6671 17.6641 99.7141 18.9025 100.538 20.9625C100.291 20.9864 100.032 21.0459 99.7612 21.1531C97.879 21.9032 95.9144 22.4986 93.8911 22.6653C92.0912 22.8082 90.1737 22.451 88.4562 22.9987C87.3622 23.3441 86.974 24.7134 87.7857 25.5589C90.8913 28.7978 97.4908 28.0952 101.42 27.2379C102.961 26.9044 103.596 25.7018 103.608 24.4277C105.161 24.5467 106.796 23.475 106.937 21.4627C107.255 16.8663 102.937 13.294 99.2083 11.4722H99.1965Z" fill="#E0DFE6"/>
<path d="M54.0956 23.3884C54.0345 21.9674 51.6162 21.4741 51.3598 23.0361C50.2483 30.0705 48.5751 37.0933 46.572 43.9516C45.8392 44.5036 45.3629 45.3844 45.424 46.594C45.4484 47.0755 45.4728 47.557 45.4972 48.0385C45.6804 51.7495 52.0193 53.0883 52.6666 48.9662C54.0223 40.4168 54.4376 32.0318 54.0956 23.3884Z" fill="#E0DFE6"/>
<path d="M1.2917 70.6286C0.995961 70.6286 0.700225 70.5239 0.451806 70.3263C-0.092348 69.8729 -0.151495 69.0707 0.309853 68.5359C5.38468 62.7229 9.72609 58.3398 13.9847 54.7474C14.5288 54.294 15.3451 54.3521 15.8064 54.8869C16.2678 55.4217 16.2086 56.2239 15.6645 56.6773C11.5005 60.1768 7.25374 64.4784 2.26171 70.1868C2.00146 70.4774 1.64658 70.6286 1.27987 70.6286H1.2917Z" fill="#525D7D"/>
<path d="M17.3905 51.5C17.1578 51.5 16.9135 51.4307 16.7041 51.3036C16.1108 50.9224 15.9363 50.1484 16.3202 49.5593C18.7283 45.828 20.7642 41.161 22.9164 36.2284C29.4311 21.3148 36.8067 4.41431 58.2122 4.41431C58.8171 4.41431 69.3221 5.45398 79.5828 7.40626C98.8593 11.0682 101.093 14.8111 101.093 17.2947C101.093 21.696 95.4624 23.6714 89.8667 23.6714C85.3064 23.6714 80.7228 22.9667 76.2789 22.2967C71.9396 21.6383 67.4491 20.9451 63.0866 20.9451C60.6203 20.9451 58.3867 21.1531 56.2578 21.592C55.5714 21.7307 54.8967 21.2917 54.757 20.6101C54.6175 19.9286 55.0595 19.2586 55.7459 19.1199C58.0493 18.6463 60.4574 18.4153 63.0866 18.4153C67.6469 18.4153 72.2304 19.1199 76.6628 19.7899C81.002 20.4484 85.4925 21.1415 89.8551 21.1415C93.2171 21.1415 98.5336 20.1018 98.5336 17.2947C98.5336 16.6825 97.6029 13.4248 79.3152 9.92458C68.9847 7.9492 58.724 6.96729 58.1773 6.94418C38.4703 6.94418 31.4437 23.036 25.2431 37.2334C23.0443 42.2585 20.9736 47.0063 18.4491 50.9224C18.2048 51.3036 17.7977 51.5 17.3789 51.5H17.3905Z" fill="#525D7D"/>
<path d="M55.6939 50.0287C55.067 50.0287 54.4802 49.6643 54.2934 49.1001C52.2927 43 51.2791 36.512 51.2791 29.8242C51.2791 26.6507 51.5191 23.4302 51.9726 20.245C52.0793 19.5398 52.7996 19.0461 53.5998 19.1401C54.4001 19.2342 54.9603 19.8689 54.8536 20.5741C54.4135 23.6535 54.1867 26.7682 54.1867 29.8242C54.1867 36.2652 55.1604 42.5181 57.081 48.3832C57.3078 49.0649 56.8543 49.7701 56.0807 49.9699C55.9473 50.0052 55.8139 50.0169 55.6806 50.0169L55.6939 50.0287Z" fill="#525D7D"/>
<path d="M40.8426 80.905C40.5021 80.905 40.1734 80.7753 39.9151 80.5042C39.4219 79.9855 39.4454 79.1721 39.9503 78.6887C44.2711 74.5392 55.4606 64.8961 66.1569 64.8961C70.4542 64.8961 73.7888 66.6408 76.7476 68.1733C79.272 69.4936 81.4559 70.6253 83.8863 70.6253C86.9156 70.6253 88.2658 67.8315 88.2658 66.7705C88.2658 61.666 81.1271 51.1388 59.0534 51.1388C55.4019 51.1388 51.539 51.4571 47.5704 52.0701C46.8659 52.1762 46.2202 51.6929 46.1027 50.9974C45.9971 50.29 46.4785 49.6417 47.1712 49.5238C51.2689 48.8872 55.2727 48.5571 59.0534 48.5571C82.2073 48.5571 90.8372 59.7209 90.8372 66.7705C90.8372 69.4583 88.1954 73.207 83.8981 73.207C80.8453 73.207 78.2857 71.8749 75.5735 70.4721C72.7555 69.0103 69.8437 67.4896 66.1687 67.4896C59.3939 67.4896 50.2592 72.3818 41.735 80.5749C41.4884 80.8107 41.1714 80.9286 40.8544 80.9286L40.8426 80.905Z" fill="#525D7D"/>
<path d="M34.5831 98.5857C34.3882 98.5857 34.1818 98.5392 33.9983 98.4344C33.3906 98.1083 33.1613 97.3398 33.4823 96.711C36.0852 91.7271 39.4907 87.0576 43.6071 82.7957C34.7551 77.3926 27.1644 69.9983 19.8146 62.8369L17.9685 61.0436C17.464 60.5546 17.4525 59.7511 17.9341 59.2504C18.4157 58.738 19.2068 58.7264 19.6999 59.2154L21.546 61.0087C29.171 68.438 37.0598 76.1234 46.2558 81.4333C46.5997 81.6312 46.8291 81.9806 46.8749 82.3765C46.9208 82.7724 46.7832 83.1683 46.508 83.4478C42.0476 87.8378 38.4128 92.7052 35.6839 97.9104C35.4545 98.3412 35.0303 98.5857 34.5716 98.5857H34.5831Z" fill="#525D7D"/>
<path d="M49.6143 80.9287C49.2446 80.9287 48.8865 80.7424 48.6324 80.3965C48.1934 79.7712 48.2742 78.8664 48.8056 78.3475C51.5204 75.793 54.9167 75.2475 57.2502 75.0479C57.9549 74.9814 58.5441 75.5934 58.6018 76.3917C58.648 77.19 58.1282 77.8819 57.4351 77.9484C54.2813 78.2145 52.0518 79.0527 50.4114 80.5961C50.1803 80.8222 49.8915 80.9287 49.6143 80.9287Z" fill="#525D7D"/>
<path d="M39.7167 72.1C39.56 72.1 39.4032 72.0777 39.2465 72.0218C34.8826 70.4792 31.7723 67.394 28.7585 64.4094L28.1919 63.8505C27.6977 63.3586 27.7218 62.5873 28.2522 62.129C28.7826 61.6707 29.6144 61.6931 30.1087 62.1849L30.6753 62.7438C33.4721 65.5272 36.3774 68.4 40.1748 69.7414C40.8499 69.9762 41.1995 70.6916 40.9342 71.3176C40.7293 71.8094 40.235 72.1 39.7046 72.1H39.7167Z" fill="#525D7D"/>
<path d="M98.832 63.2715H98.7622C93.4641 63.2485 88.492 61.178 84.7659 57.4165C81.098 53.7125 79.037 48.6856 79.1185 43.6013C79.1651 40.6565 79.9336 37.7117 81.3309 35.089C81.657 34.4793 82.4255 34.2377 83.0543 34.5598C83.6714 34.8819 83.9159 35.6411 83.5899 36.2623C82.3789 38.5399 81.7152 41.0936 81.6686 43.6473C81.5987 48.053 83.3919 52.4356 86.5941 55.6565C89.8428 58.9234 94.1744 60.7409 98.7854 60.7524H98.8437C103.362 60.7524 107.833 58.8774 111.128 55.599C114.4 52.3551 116.17 48.168 116.124 43.8198C116.077 39.3911 114.295 35.296 111.117 32.2707C107.74 29.0613 103.024 27.3819 97.8656 27.5314C97.2833 27.5429 96.6779 27.6005 96.0607 27.6695C92.5908 28.0836 89.4119 29.5675 86.8619 31.9716C86.3495 32.4548 85.5461 32.4318 85.0687 31.9256C84.5796 31.4195 84.6029 30.6258 85.1153 30.1541C88.0612 27.3819 91.7408 25.6679 95.758 25.1848C96.4566 25.1043 97.1436 25.0468 97.7957 25.0238C103.653 24.8627 109.009 26.7837 112.886 30.4647C116.566 33.9617 118.615 38.6894 118.674 43.7968C118.72 48.8237 116.682 53.6435 112.933 57.3705C109.16 61.1205 104.037 63.26 98.8437 63.26L98.832 63.2715Z" fill="#525D7D"/>
<path d="M85.1444 10.3C84.6912 10.3 84.2496 10.0682 84.0288 9.6597C83.5059 8.72133 83.1922 7.71672 82.89 6.74523C82.0766 4.13987 81.5421 2.41769 77.6028 2.41769C72.4783 2.41769 67.5397 3.56581 62.2989 4.76913C60.1492 5.26592 57.9297 5.78478 55.7218 6.20429C55.0363 6.33676 54.3623 5.90622 54.2345 5.25488C54.095 4.60354 54.5482 3.96324 55.2338 3.8418C57.3952 3.43333 59.5914 2.92551 61.7179 2.42872C66.8657 1.23644 72.1878 0 77.6261 0C83.4594 0 84.5053 3.35606 85.3419 6.06077C85.6208 6.95498 85.8765 7.794 86.2948 8.52262C86.6202 9.10772 86.3877 9.83634 85.7719 10.1565C85.5859 10.2558 85.3768 10.3 85.1792 10.3H85.1444Z" fill="#525D7D"/>
<path d="M59.2309 35.3027C56.8118 35.3027 54.2092 33.5974 54.2092 30.8292C54.2092 28.2596 56.3761 25.4798 57.9583 23.4474C58.199 23.1321 58.4283 22.8401 58.6347 22.5714C59.0589 22.0108 59.8385 21.9057 60.3888 22.3378C60.9391 22.77 61.0423 23.5642 60.6181 24.1249C60.4118 24.4052 60.171 24.7089 59.9073 25.0359C58.6347 26.6711 56.6971 29.1473 56.6971 30.8292C56.6971 32.079 58.1532 32.7565 59.2079 32.7565C60.2627 32.7565 61.4321 32.2776 62.4181 31.46C62.957 31.0161 63.7366 31.0979 64.1837 31.6352C64.6194 32.1841 64.5391 32.9784 64.0117 33.4339C62.5786 34.6253 60.836 35.3144 59.2194 35.3144L59.2309 35.3027Z" fill="#525D7D"/>
<path d="M68.2077 36.7858C65.0429 36.7858 63 34.857 63 31.859C63 29.842 64.0274 27.7919 65.0547 26.1386C65.102 25.5104 65.657 25.0144 66.3419 25.0144H66.5072C66.9677 25.0144 67.4047 25.2459 67.629 25.6206C67.8534 25.9954 67.8534 26.4583 67.6172 26.833C66.6725 28.2989 65.5979 30.1947 65.5979 31.848C65.5979 32.9943 66.0585 34.361 68.2195 34.361C69.8255 34.361 72.8839 33.4793 73.8286 32.1566C74.2183 31.6055 75.0213 31.4512 75.6117 31.826C76.2022 32.1897 76.3675 32.9392 75.966 33.4903C74.3718 35.7277 70.3923 36.7638 68.2077 36.7638V36.7858Z" fill="#525D7D"/>
<path d="M79.5086 38.2573C75.8886 38.2573 73.2559 35.4943 73.2559 31.6998C73.2559 29.3298 74.1456 26.8861 74.8038 25.1055C75.0598 24.4055 75.8277 24.0617 76.5102 24.3073C77.205 24.5652 77.5584 25.3388 77.3025 26.0265C76.7174 27.6229 75.9252 29.8087 75.9252 31.6875C75.9252 34.3645 77.7291 35.568 79.5086 35.568C85.4079 35.568 86.5049 28.0404 86.7121 24.7985C86.7608 24.0617 87.3824 23.4968 88.126 23.5459C88.8573 23.5951 89.4179 24.2336 89.3692 24.9704C88.8573 33.2839 85.1641 38.245 79.5086 38.245V38.2573Z" fill="#525D7D"/>
<path d="M109.292 23.5307C108.187 23.5307 106.953 22.7098 106.953 21.5336C106.953 20.8719 107.339 20.4063 107.57 20.1368C107.609 20.0878 107.66 20.0388 107.699 19.9775C107.943 19.2791 108.701 18.9728 109.447 19.2056C110.526 19.5487 110.925 20.3083 111.13 20.7126C111.272 20.9822 111.349 21.2763 111.349 21.5826C111.349 22.6485 110.411 23.5429 109.292 23.5429V23.5307ZM108.765 21.0435C108.624 21.166 108.534 21.362 108.534 21.5703C108.534 21.5948 108.765 21.0435 108.765 21.0435Z" fill="#525D7D"/>
<path d="M120.818 30.8999C119.674 30.8999 118.674 29.8882 118.674 28.7337C118.674 28.079 118.975 27.4482 119.565 26.865C119.951 26.4841 120.541 26.377 121.035 26.6031C121.071 26.6031 121.119 26.6269 121.167 26.6269C121.54 26.6983 122.323 26.8531 122.781 27.6029C122.973 27.9124 123.07 28.2695 123.07 28.6384C123.07 29.8168 121.998 30.8999 120.818 30.8999ZM121.083 28.3528L121.275 28.5432C121.239 28.448 121.167 28.3885 121.083 28.3528ZM121.083 26.615C121.083 26.615 121.083 26.615 121.095 26.615C121.095 26.615 121.095 26.615 121.083 26.615Z" fill="#525D7D"/>
<path d="M123.715 45.6142C122.424 45.6142 121.605 44.7827 121.605 43.4988C121.605 42.3005 122.399 41.3834 123.566 41.2122C123.641 41.2122 123.753 41.2 123.815 41.2C124.994 41.2 126 42.4105 126 43.401C126 44.477 125.081 45.6142 123.715 45.6142ZM123.703 42.9485C123.616 42.9485 123.293 42.9852 123.293 43.401C123.293 43.5966 123.343 43.7189 123.368 43.7556C123.38 43.7678 123.554 43.8779 123.815 43.8779V42.9852C123.815 42.9852 123.74 42.9608 123.703 42.9608V42.9485ZM123.877 42.9975L123.976 43.8534C124.15 43.8167 124.311 43.6089 124.311 43.4988C124.287 43.3276 124.088 43.0953 123.864 42.9975H123.877Z" fill="#525D7D"/>
<path d="M121.609 60.3286C120.799 60.3286 120.14 59.3878 120.14 58.2421C120.14 57.1928 120.648 56.252 121.365 55.9867C121.506 55.9384 121.638 55.9143 121.77 55.9143C122.071 55.9143 123.042 56.059 123.042 57.9044V58.0008C123.06 58.1094 123.07 58.2179 123.07 58.3385C123.07 59.2793 122.467 60.3286 121.609 60.3286ZM121.035 58.5436C121.035 58.5436 121.035 58.5436 121.035 58.5556C121.035 58.5556 121.035 58.5556 121.035 58.5436ZM121.072 58.037C121.204 58.3024 121.459 58.5436 121.77 58.5436C121.845 58.5436 121.902 58.5315 121.93 58.5195C122.081 58.4592 122.194 58.3265 122.194 58.2421C122.194 58.025 121.986 57.6993 121.6 57.6993C121.6 57.6993 121.214 57.6993 121.063 58.037H121.072Z" fill="#525D7D"/>
<path d="M111.32 70.6286C110.635 70.6286 109.884 69.7935 109.884 68.6005C109.884 67.8846 110.16 67.3146 110.359 66.8904C110.55 66.4927 110.864 66.2541 111.206 66.2409C111.33 66.2276 111.406 66.2144 111.482 66.2144C112.243 66.2144 112.814 66.9965 112.814 68.0437C112.814 69.4488 112.129 70.6286 111.32 70.6286ZM111.216 67.7388C110.93 67.7786 110.75 68.0039 110.731 68.0967C110.731 68.4812 110.94 68.8788 111.216 69.0379V67.7388ZM111.254 67.7388L111.929 68.3618C111.872 68.0304 111.691 67.7256 111.311 67.7256C111.292 67.7256 111.273 67.7256 111.254 67.7256V67.7388Z" fill="#525D7D"/>
<path d="M98.9254 73.5715C97.8475 73.5715 96.6978 72.8411 96.6978 71.4847C96.6978 70.8847 96.9014 70.3108 97.069 69.9456C97.3565 69.3196 98.0271 69.0066 98.6499 69.2283C98.7218 69.2544 98.8056 69.2544 98.8894 69.2544C99.3445 69.2935 100.291 69.3848 100.83 70.3761C100.997 70.676 101.093 71.0282 101.093 71.3803C101.093 72.6716 99.9553 73.5585 98.9254 73.5585V73.5715ZM98.6739 70.8195L99.2487 71.1325C99.1529 70.8978 98.9972 70.7412 98.9134 70.7152C98.8056 70.7152 98.7218 70.7543 98.6619 70.8065L98.6739 70.8195Z" fill="#525D7D"/>
<path d="M102.368 42.6713C101.974 42.6713 101.58 42.4931 101.325 42.1477C100.92 41.6017 101.059 40.8329 101.638 40.4541C102.368 39.9638 103.087 39.4847 103.817 39.0056C106.274 37.3788 108.58 35.8524 110.735 34.1253C111.268 33.6908 112.068 33.7688 112.52 34.2813C112.972 34.7939 112.891 35.5627 112.358 35.9972C110.121 37.7911 107.641 39.429 105.254 41.0112C104.535 41.4903 103.817 41.9694 103.098 42.4485C102.878 42.5933 102.623 42.6713 102.368 42.6713Z" fill="#525D7D"/>
<path d="M100.89 57.3857C100.287 57.3857 99.7535 56.9492 99.6491 56.3239C99.5215 55.6279 99.9855 54.9554 100.67 54.8256C104.73 54.0942 108.164 50.6729 108.837 46.6853C108.953 45.9893 109.614 45.5056 110.299 45.6353C110.983 45.7533 111.447 46.4258 111.331 47.1218C110.473 52.2184 106.262 56.4183 101.111 57.3621C101.03 57.3739 100.96 57.3857 100.89 57.3857Z" fill="#525D7D"/>
</g>
<defs>
<clipPath id="clip0_802_381">
<rect width="126" height="103" fill="white"/>
</clipPath>
</defs>
</svg>
